<?xml version="1.0" encoding="UTF-8"?>
<svg xmlns="http://www.w3.org/2000/svg" xmlns:xlink="http://www.w3.org/1999/xlink" width="240px" height="85px" viewBox="0 0 240 85" version="1.1">
<g id="surface1">
<path style=" stroke:none;fill-rule:nonzero;fill:rgb(3.137255%,40%,100%);fill-opacity:1;" d="M 194.109375 60.890625 L 200.601562 60.890625 L 200.601562 49.628906 L 209.660156 60.890625 L 217.601562 60.890625 L 207.054688 47.914062 L 216.0625 36.660156 L 208.835938 36.660156 L 200.601562 47.03125 L 200.601562 24.132812 L 194.109375 25.046875 Z M 179.140625 36.039062 C 171.933594 36.039062 166.929688 41.238281 166.929688 48.773438 C 166.929688 56.308594 171.933594 61.503906 179.140625 61.503906 C 186.347656 61.503906 191.351562 56.308594 191.351562 48.773438 C 191.351562 41.238281 186.347656 36.039062 179.140625 36.039062 Z M 179.140625 55.570312 C 175.800781 55.570312 173.515625 52.804688 173.515625 48.773438 C 173.515625 44.738281 175.800781 41.972656 179.140625 41.972656 C 182.480469 41.972656 184.765625 44.738281 184.765625 48.773438 C 184.765625 52.804688 182.480469 55.570312 179.140625 55.570312 Z M 152.761719 36.039062 C 145.554688 36.039062 140.550781 41.238281 140.550781 48.773438 C 140.550781 56.308594 145.554688 61.503906 152.761719 61.503906 C 159.96875 61.503906 164.972656 56.308594 164.972656 48.773438 C 164.972656 41.238281 159.96875 36.039062 152.761719 36.039062 Z M 152.761719 55.570312 C 149.421875 55.570312 147.132812 52.804688 147.132812 48.773438 C 147.132812 44.738281 149.421875 41.972656 152.761719 41.972656 C 156.097656 41.972656 158.386719 44.738281 158.386719 48.773438 C 158.386719 52.804688 156.097656 55.570312 152.761719 55.570312 Z M 127.917969 36.039062 C 124.914062 36.039062 122.429688 37.304688 120.871094 39.617188 L 120.871094 24.132812 L 114.371094 25.039062 L 114.371094 60.882812 L 120.132812 60.882812 L 120.246094 57.144531 C 121.785156 59.933594 124.535156 61.503906 127.917969 61.503906 C 134.082031 61.503906 138.589844 56.140625 138.589844 48.773438 C 138.589844 41.40625 134.101562 36.039062 127.917969 36.039062 Z M 126.382812 55.570312 C 123.042969 55.570312 120.753906 52.804688 120.753906 48.773438 C 120.753906 44.738281 123.042969 41.972656 126.382812 41.972656 C 129.71875 41.972656 132.007812 44.738281 132.007812 48.773438 C 132.007812 52.804688 129.71875 55.570312 126.382812 55.570312 Z M 101.359375 55.886719 C 97.914062 55.886719 95.441406 54.167969 94.597656 51.210938 L 110.589844 51.210938 C 110.746094 50.304688 110.855469 49.230469 110.855469 48.511719 C 110.855469 40.714844 106.785156 36.039062 99.953125 36.039062 C 93.054688 36.039062 88.277344 41.238281 88.277344 48.773438 C 88.277344 56.40625 93.28125 61.503906 100.710938 61.503906 C 104.554688 61.503906 108.292969 60.125 110.632812 57.832031 L 108.292969 53.417969 C 106.027344 55.097656 103.804688 55.886719 101.359375 55.886719 Z M 99.910156 41.453125 C 102.910156 41.453125 104.828125 43.40625 104.828125 46.433594 L 104.828125 46.457031 L 94.460938 46.457031 C 95.082031 43.246094 97.019531 41.453125 99.910156 41.453125 Z M 78.113281 61.511719 C 81.472656 61.511719 84.761719 60.132812 87.078125 57.742188 L 84.539062 53.164062 C 82.738281 54.667969 80.691406 55.480469 78.753906 55.480469 C 75.152344 55.480469 72.75 52.78125 72.75 48.78125 C 72.75 44.777344 75.152344 42.078125 78.753906 42.078125 C 80.535156 42.078125 82.472656 42.769531 84.046875 43.988281 L 86.625 39.3125 C 84.539062 37.289062 81.308594 36.046875 78.105469 36.046875 C 71.054688 36.046875 66.074219 41.320312 66.074219 48.78125 C 66.082031 56.214844 71.0625 61.511719 78.113281 61.511719 Z M 57.472656 36.660156 L 57.359375 40.433594 C 55.820312 37.617188 53.070312 36.046875 49.6875 36.046875 C 43.503906 36.046875 39.015625 41.414062 39.015625 48.78125 C 39.015625 56.148438 43.53125 61.511719 49.6875 61.511719 C 53.070312 61.511719 55.828125 59.941406 57.359375 57.152344 L 57.472656 60.890625 L 63.234375 60.890625 L 63.234375 36.660156 Z M 51.226562 55.570312 C 47.886719 55.570312 45.597656 52.804688 45.597656 48.773438 C 45.597656 44.738281 47.886719 41.972656 51.226562 41.972656 C 54.5625 41.972656 56.851562 44.738281 56.851562 48.773438 C 56.851562 52.804688 54.554688 55.570312 51.226562 55.570312 Z M 38.527344 36.707031 L 32.6875 36.707031 L 32.6875 34.636719 C 32.6875 31.539062 33.816406 30.351562 36.75 30.351562 C 37.65625 30.351562 38.394531 30.375 38.816406 30.417969 L 38.816406 25.105469 C 38.015625 24.867188 36.0625 24.632812 34.933594 24.632812 C 28.964844 24.632812 26.210938 27.652344 26.210938 34.175781 L 26.210938 36.699219 L 22.523438 36.699219 L 22.523438 42.554688 L 26.210938 42.554688 L 26.210938 60.882812 L 32.695312 60.882812 L 32.695312 42.5625 L 37.527344 42.5625 Z M 38.527344 36.707031 "/>
</g>
</svg>
